<svg viewBox="0 0 320 144" xmlns="http://www.w3.org/2000/svg" width="100%" height="100%" preserveAspectRatio="xMidYMid slice"><defs><linearGradient id="sky6" x1="0" y1="0" x2="0" y2="1"><stop offset="0%" stop-color="#1C2B22"></stop><stop offset="100%" stop-color="#2D6A4F"></stop></linearGradient><radialGradient id="glow6" cx="50%" cy="50%" r="50%"><stop offset="0%" stop-color="#52B788" stop-opacity="0.4"></stop><stop offset="100%" stop-color="#52B788" stop-opacity="0"></stop></radialGradient></defs><rect width="320" height="144" fill="url(#sky6)"></rect><!-- World map dots suggestion --><circle cx="80" cy="55" r="3" fill="#52B788" opacity="0.3"></circle><circle cx="95" cy="48" r="2" fill="#52B788" opacity="0.25"></circle><circle cx="110" cy="55" r="2.5" fill="#52B788" opacity="0.3"></circle><circle cx="165" cy="42" r="2.5" fill="#52B788" opacity="0.3"></circle><circle cx="185" cy="50" r="2" fill="#52B788" opacity="0.25"></circle><circle cx="240" cy="45" r="3" fill="#52B788" opacity="0.3"></circle><circle cx="260" cy="55" r="2" fill="#52B788" opacity="0.25"></circle><!-- Journey path line London -> Denmark -> World --><path d="M40,65 Q80,40 120,55 Q160,70 200,50 Q240,30 280,55" stroke="#52B788" stroke-width="2" fill="none" opacity="0.4" stroke-dasharray="6,4"></path><!-- London dot --><circle cx="40" cy="65" r="5" fill="#52B788" opacity="0.6"></circle><text x="40" y="78" text-anchor="middle" font-size="7" fill="#52B788" opacity="0.7" font-family="sans-serif">London</text><!-- Denmark highlighted --><circle cx="160" cy="55" r="14" fill="#52B788" opacity="0.15"></circle><circle cx="160" cy="55" r="8" fill="#52B788" opacity="0.5"></circle><text x="160" y="72" text-anchor="middle" font-size="7" fill="#52B788" opacity="0.9" font-family="sans-serif">Danmark 🇩🇰</text><!-- World cup destination --><circle cx="280" cy="55" r="7" fill="#40916C" opacity="0.7"></circle><text x="280" y="70" text-anchor="middle" font-size="6.5" fill="#52B788" opacity="0.7" font-family="sans-serif">WC 2026</text><!-- Football ball central, glowing --><circle cx="160" cy="106" r="18" fill="url(#glow6)"></circle><circle cx="160" cy="106" r="12" fill="white" opacity="0.92"></circle><path d="M154,100 L160,93 L166,100 L163,110 L157,110Z" fill="#1A3A2A" opacity="0.5"></path><path d="M148,107 L154,100 L157,110 L150,113Z" fill="#1A3A2A" opacity="0.3"></path><path d="M163,110 L166,100 L172,107 L170,114Z" fill="#1A3A2A" opacity="0.3"></path><!-- Glow rings --><circle cx="160" cy="106" r="17" fill="none" stroke="#52B788" stroke-width="1" opacity="0.3"></circle><circle cx="160" cy="106" r="22" fill="none" stroke="#52B788" stroke-width="0.5" opacity="0.15"></circle><!-- Ground --><rect x="0" y="130" width="320" height="14" fill="#163020"></rect><text x="160" y="140" text-anchor="middle" font-size="7" fill="#52B788" opacity="0.5" font-family="sans-serif">ONE BALL · ONE WORLD</text></svg>
