<svg viewBox="0 0 320 144" xmlns="http://www.w3.org/2000/svg" width="100%" height="100%" preserveAspectRatio="xMidYMid slice"><defs><linearGradient id="sky3" x1="0" y1="0" x2="1" y2="1"><stop offset="0%" stop-color="#163020"></stop><stop offset="100%" stop-color="#1A3A2A"></stop></linearGradient><radialGradient id="glow3" cx="50%" cy="50%" r="50%"><stop offset="0%" stop-color="#52B788" stop-opacity="0.3"></stop><stop offset="100%" stop-color="#52B788" stop-opacity="0"></stop></radialGradient></defs><rect width="320" height="144" fill="url(#sky3)"></rect><!-- Glowing earth --><circle cx="160" cy="55" r="38" fill="url(#glow3)"></circle><circle cx="160" cy="55" r="28" fill="#163020" stroke="#52B788" stroke-width="1.5" opacity="0.8"></circle><!-- Continent shapes --><ellipse cx="152" cy="50" rx="10" ry="14" fill="#2D6A4F" opacity="0.8"></ellipse><ellipse cx="170" cy="53" rx="8" ry="10" fill="#2D6A4F" opacity="0.7"></ellipse><ellipse cx="155" cy="67" rx="6" ry="5" fill="#40916C" opacity="0.6"></ellipse><!-- Orbit ring --><ellipse cx="160" cy="55" rx="38" ry="12" fill="none" stroke="#52B788" stroke-width="1" opacity="0.25" stroke-dasharray="4,3"></ellipse><!-- Football players + handicap illustration --><!-- Player 1 normal --><ellipse cx="55" cy="112" rx="8" ry="20" fill="#40916C"></ellipse><circle cx="55" cy="89" r="7.5" fill="#40916C"></circle><!-- Player 2 - wind (climate handicap) wavy lines around --><ellipse cx="240" cy="114" rx="7" ry="18" fill="#2D6A4F" opacity="0.7"></ellipse><circle cx="240" cy="93" r="6.5" fill="#2D6A4F" opacity="0.7"></circle><path d="M250,90 Q260,87 255,95" stroke="#52B788" stroke-width="1.5" fill="none" opacity="0.6"></path><path d="M252,96 Q265,92 258,103" stroke="#52B788" stroke-width="1.5" fill="none" opacity="0.5"></path><!-- Arrows / handicap disruption lines --><path d="M80,100 Q130,85 160,100 Q190,115 240,100" stroke="#52B788" stroke-width="1.5" fill="none" stroke-dasharray="5,3" opacity="0.5"></path><!-- Ball on ground --><circle cx="155" cy="124" r="7" fill="white" opacity="0.85"></circle><path d="M150,121 L155,116 L160,121 L158,128 L152,128Z" fill="#1A3A2A" opacity="0.45"></path><!-- Climate icons: sun, cloud, rain --><circle cx="30" cy="28" r="10" fill="#52B788" opacity="0.2"></circle><circle cx="30" cy="28" r="6" fill="#52B788" opacity="0.3"></circle><!-- Sun rays --><line x1="30" y1="14" x2="30" y2="10" stroke="#52B788" stroke-width="1.5" opacity="0.4"></line><line x1="40" y1="18" x2="43" y2="15" stroke="#52B788" stroke-width="1.5" opacity="0.4"></line><line x1="44" y1="28" x2="48" y2="28" stroke="#52B788" stroke-width="1.5" opacity="0.4"></line><!-- Cloud --><ellipse cx="270" cy="30" rx="18" ry="10" fill="#2D6A4F" opacity="0.4"></ellipse><ellipse cx="258" cy="33" rx="12" ry="8" fill="#2D6A4F" opacity="0.3"></ellipse><!-- Rain drops --><line x1="260" y1="42" x2="257" y2="50" stroke="#52B788" stroke-width="1.5" stroke-linecap="round" opacity="0.5"></line><line x1="268" y1="43" x2="265" y2="52" stroke="#52B788" stroke-width="1.5" stroke-linecap="round" opacity="0.5"></line><line x1="276" y1="41" x2="273" y2="50" stroke="#52B788" stroke-width="1.5" stroke-linecap="round" opacity="0.5"></line><!-- Ground --><rect x="0" y="130" width="320" height="14" fill="#163020"></rect><!-- Reflection text area --><text x="160" y="140" text-anchor="middle" font-size="7" fill="#52B788" opacity="0.5" font-family="sans-serif">REFLECT · ACT · CHANGE</text></svg>
