<svg viewBox="0 0 320 144" xmlns="http://www.w3.org/2000/svg" width="100%" height="100%" preserveAspectRatio="xMidYMid slice"><defs><linearGradient id="sky2" x1="0" y1="0" x2="0" y2="1"><stop offset="0%" stop-color="#1C2B22"></stop><stop offset="100%" stop-color="#2D6A4F"></stop></linearGradient></defs><rect width="320" height="144" fill="url(#sky2)"></rect><!-- Ground --><rect x="0" y="108" width="320" height="36" fill="#163020"></rect><!-- Urban buildings background --><rect x="0" y="50" width="40" height="70" fill="#1A3A2A"></rect><rect x="10" y="38" width="22" height="25" fill="#163020"></rect><rect x="270" y="40" width="50" height="78" fill="#1A3A2A"></rect><rect x="280" y="28" width="28" height="24" fill="#163020"></rect><!-- Windows on buildings --><rect x="5" y="55" width="8" height="6" fill="#52B788" opacity="0.4" rx="1"></rect><rect x="20" y="55" width="8" height="6" fill="#52B788" opacity="0.3" rx="1"></rect><rect x="5" y="70" width="8" height="6" fill="#52B788" opacity="0.5" rx="1"></rect><rect x="275" y="48" width="8" height="6" fill="#52B788" opacity="0.4" rx="1"></rect><rect x="290" y="48" width="8" height="6" fill="#52B788" opacity="0.3" rx="1"></rect><rect x="275" y="63" width="8" height="6" fill="#52B788" opacity="0.5" rx="1"></rect><rect x="290" y="63" width="8" height="6" fill="#52B788" opacity="0.4" rx="1"></rect><!-- Pitch lines --><ellipse cx="160" cy="118" rx="80" ry="15" fill="none" stroke="#52B788" stroke-width="1" opacity="0.3"></ellipse><line x1="160" y1="103" x2="160" y2="133" stroke="#52B788" stroke-width="1" opacity="0.3"></line><!-- Circle of players --><ellipse cx="130" cy="103" rx="7" ry="18" fill="#2D6A4F"></ellipse><circle cx="130" cy="82" r="7" fill="#2D6A4F"></circle><ellipse cx="155" cy="100" rx="8" ry="19" fill="#40916C"></ellipse><circle cx="155" cy="78" r="7.5" fill="#40916C"></circle><ellipse cx="180" cy="102" rx="7" ry="18" fill="#52B788" opacity="0.9"></ellipse><circle cx="180" cy="81" r="6.5" fill="#52B788" opacity="0.9"></circle><ellipse cx="205" cy="104" rx="6" ry="17" fill="#2D6A4F" opacity="0.8"></ellipse><circle cx="205" cy="84" r="6" fill="#2D6A4F" opacity="0.8"></circle><!-- Arms up / celebration --><line x1="123" y1="92" x2="112" y2="82" stroke="#2D6A4F" stroke-width="3" stroke-linecap="round"></line><line x1="137" y1="90" x2="148" y2="80" stroke="#2D6A4F" stroke-width="3" stroke-linecap="round"></line><line x1="163" y1="88" x2="175" y2="79" stroke="#40916C" stroke-width="3" stroke-linecap="round"></line><!-- Ball in centre --><circle cx="160" cy="115" r="7" fill="white" opacity="0.85"></circle><path d="M155,112 L160,107 L165,112 L163,119 L157,119Z" fill="#1A3A2A" opacity="0.45"></path><!-- Confetti/dots --><circle cx="70" cy="60" r="3" fill="#52B788" opacity="0.5"></circle><circle cx="250" cy="55" r="2.5" fill="#52B788" opacity="0.4"></circle><circle cx="95" cy="45" r="2" fill="#52B788" opacity="0.3"></circle><circle cx="230" cy="48" r="3" fill="#40916C" opacity="0.4"></circle></svg>
