<svg viewBox="0 0 320 144" xmlns="http://www.w3.org/2000/svg" width="100%" height="100%" preserveAspectRatio="xMidYMid slice"><defs><linearGradient id="sky5" x1="0" y1="0" x2="0" y2="1"><stop offset="0%" stop-color="#1A3A2A"></stop><stop offset="100%" stop-color="#163020"></stop></linearGradient></defs><rect width="320" height="144" fill="url(#sky5)"></rect><!-- Grid of partner nodes --><!-- Central hub --><circle cx="160" cy="72" r="22" fill="#2D6A4F" opacity="0.5"></circle><circle cx="160" cy="72" r="14" fill="#2D6A4F"></circle><!-- SOF logo hint in centre --><circle cx="160" cy="72" r="8" fill="#52B788" opacity="0.4"></circle><polygon points="160,65 163,71 169,71 164,75 166,81 160,77 154,81 156,75 151,71 157,71" fill="#52B788" opacity="0.8" transform="scale(0.7) translate(69,31)"></polygon><!-- Partner nodes with lines --><!-- Top --><line x1="160" y1="50" x2="160" y2="22" stroke="#52B788" stroke-width="1.5" opacity="0.3"></line><circle cx="160" cy="18" r="10" fill="#1C2B22" stroke="#52B788" stroke-width="1.5"></circle><text x="160" y="22" text-anchor="middle" font-size="8" fill="#52B788" font-family="sans-serif">🏫</text><!-- Right --><line x1="182" y1="72" x2="258" y2="50" stroke="#52B788" stroke-width="1.5" opacity="0.3"></line><circle cx="265" cy="47" r="10" fill="#1C2B22" stroke="#52B788" stroke-width="1.5"></circle><text x="265" y="51" text-anchor="middle" font-size="8" fill="#52B788" font-family="sans-serif">🏢</text><!-- Bottom right --><line x1="175" y1="88" x2="240" y2="118" stroke="#52B788" stroke-width="1.5" opacity="0.3"></line><circle cx="248" cy="123" r="10" fill="#1C2B22" stroke="#52B788" stroke-width="1.5"></circle><text x="248" y="127" text-anchor="middle" font-size="8" fill="#52B788" font-family="sans-serif">🤝</text><!-- Bottom left --><line x1="145" y1="88" x2="80" y2="118" stroke="#52B788" stroke-width="1.5" opacity="0.3"></line><circle cx="72" cy="123" r="10" fill="#1C2B22" stroke="#52B788" stroke-width="1.5"></circle><text x="72" y="127" text-anchor="middle" font-size="8" fill="#52B788" font-family="sans-serif">🏘️</text><!-- Left --><line x1="138" y1="72" x2="62" y2="50" stroke="#52B788" stroke-width="1.5" opacity="0.3"></line><circle cx="55" cy="47" r="10" fill="#1C2B22" stroke="#52B788" stroke-width="1.5"></circle><text x="55" y="51" text-anchor="middle" font-size="8" fill="#52B788" font-family="sans-serif">⚽</text><!-- Labels --><text x="160" y="10" text-anchor="middle" font-size="7" fill="#52B788" opacity="0.7" font-family="sans-serif">Skoler</text><text x="283" y="40" text-anchor="middle" font-size="7" fill="#52B788" opacity="0.7" font-family="sans-serif">Fonde</text><text x="270" y="138" text-anchor="middle" font-size="7" fill="#52B788" opacity="0.7" font-family="sans-serif">NGO</text><text x="50" y="138" text-anchor="middle" font-size="7" fill="#52B788" opacity="0.7" font-family="sans-serif">Kommuner</text><text x="30" y="40" text-anchor="middle" font-size="7" fill="#52B788" opacity="0.7" font-family="sans-serif">Klubber</text></svg>
