<svg viewBox="0 0 320 144" xmlns="http://www.w3.org/2000/svg" width="100%" height="100%" preserveAspectRatio="xMidYMid slice"><rect width="320" height="144" fill="#1A3A2A"></rect><!-- Sky gradient --><rect width="320" height="144" fill="url(#sky1)"></rect><defs><linearGradient id="sky1" x1="0" y1="0" x2="0" y2="1"><stop offset="0%" stop-color="#1A3A2A"></stop><stop offset="100%" stop-color="#2D6A4F"></stop></linearGradient></defs><!-- School building --><rect x="200" y="45" width="100" height="80" fill="#1C2B22" rx="2"></rect><polygon points="195,45 255,15 315,45" fill="#163020"></polygon><rect x="220" y="80" width="18" height="25" fill="#52B788" opacity="0.4"></rect><rect x="248" y="80" width="18" height="25" fill="#52B788" opacity="0.4"></rect><rect x="276" y="80" width="18" height="45" fill="#52B788" opacity="0.3"></rect><!-- Window glow --><rect x="220" y="52" width="15" height="12" fill="#52B788" opacity="0.6" rx="1"></rect><rect x="245" y="52" width="15" height="12" fill="#52B788" opacity="0.6" rx="1"></rect><rect x="270" y="52" width="15" height="12" fill="#52B788" opacity="0.6" rx="1"></rect><!-- Ground --><rect x="0" y="115" width="320" height="29" fill="#163020"></rect><!-- Goal posts --><rect x="60" y="70" width="3" height="45" fill="#52B788" opacity="0.7"></rect><rect x="130" y="70" width="3" height="45" fill="#52B788" opacity="0.7"></rect><rect x="60" y="70" width="73" height="3" fill="#52B788" opacity="0.7"></rect><!-- Children silhouettes playing --><ellipse cx="85" cy="110" rx="8" ry="20" fill="#40916C"></ellipse><circle cx="85" cy="87" r="7" fill="#40916C"></circle><ellipse cx="110" cy="112" rx="7" ry="18" fill="#2D6A4F"></ellipse><circle cx="110" cy="90" r="6" fill="#2D6A4F"></circle><ellipse cx="60" cy="113" rx="6" ry="17" fill="#52B788" opacity="0.8"></ellipse><circle cx="60" cy="92" r="5.5" fill="#52B788" opacity="0.8"></circle><!-- Ball --><circle cx="135" cy="112" r="6" fill="white" opacity="0.9"></circle><path d="M131,109 L135,105 L139,109 L137,115 L133,115Z" fill="#1A3A2A" opacity="0.5"></path><!-- Arms reaching --><line x1="93" y1="100" x2="108" y2="95" stroke="#40916C" stroke-width="3" stroke-linecap="round"></line><line x1="102" y1="98" x2="118" y2="103" stroke="#2D6A4F" stroke-width="3" stroke-linecap="round"></line><!-- Sun/star accent --><circle cx="30" cy="25" r="12" fill="#52B788" opacity="0.15"></circle><circle cx="30" cy="25" r="7" fill="#52B788" opacity="0.2"></circle></svg>
