<svg viewBox="0 0 320 144" xmlns="http://www.w3.org/2000/svg" width="100%" height="100%" preserveAspectRatio="xMidYMid slice"><defs><linearGradient id="sky4" x1="0" y1="0" x2="0" y2="1"><stop offset="0%" stop-color="#1C2B22"></stop><stop offset="100%" stop-color="#2D6A4F"></stop></linearGradient></defs><rect width="320" height="144" fill="url(#sky4)"></rect><rect x="0" y="115" width="320" height="29" fill="#163020"></rect><!-- Star constellation / mentor --><circle cx="160" cy="35" r="18" fill="none" stroke="#52B788" stroke-width="1" opacity="0.2"></circle><circle cx="160" cy="35" r="10" fill="#52B788" opacity="0.15"></circle><!-- Star --><polygon points="160,22 163,31 172,31 165,37 168,46 160,40 152,46 155,37 148,31 157,31" fill="#52B788" opacity="0.6"></polygon><!-- Connecting lines (mentor network) --><line x1="160" y1="53" x2="90" y2="100" stroke="#52B788" stroke-width="1" opacity="0.2" stroke-dasharray="3,3"></line><line x1="160" y1="53" x2="130" y2="100" stroke="#52B788" stroke-width="1" opacity="0.2" stroke-dasharray="3,3"></line><line x1="160" y1="53" x2="190" y2="100" stroke="#52B788" stroke-width="1" opacity="0.2" stroke-dasharray="3,3"></line><line x1="160" y1="53" x2="230" y2="100" stroke="#52B788" stroke-width="1" opacity="0.2" stroke-dasharray="3,3"></line><!-- Mentor (larger, central, raised arm) --><ellipse cx="160" cy="106" rx="9" ry="22" fill="#52B788" opacity="0.9"></ellipse><circle cx="160" cy="81" r="9" fill="#52B788" opacity="0.9"></circle><line x1="169" y1="90" x2="180" y2="75" stroke="#52B788" stroke-width="3.5" stroke-linecap="round" opacity="0.9"></line><!-- Youth players around --><ellipse cx="90" cy="110" rx="7" ry="18" fill="#2D6A4F"></ellipse><circle cx="90" cy="89" r="7" fill="#2D6A4F"></circle><ellipse cx="130" cy="109" rx="7" ry="18" fill="#40916C"></ellipse><circle cx="130" cy="88" r="6.5" fill="#40916C"></circle><ellipse cx="190" cy="109" rx="7" ry="18" fill="#40916C"></ellipse><circle cx="190" cy="88" r="6.5" fill="#40916C"></circle><ellipse cx="230" cy="110" rx="6.5" ry="17" fill="#2D6A4F"></ellipse><circle cx="230" cy="90" r="6" fill="#2D6A4F"></circle><!-- All arms reaching up toward star --><line x1="83" y1="98" x2="75" y2="84" stroke="#2D6A4F" stroke-width="2.5" stroke-linecap="round"></line><line x1="123" y1="97" x2="118" y2="82" stroke="#40916C" stroke-width="2.5" stroke-linecap="round"></line><line x1="197" y1="97" x2="202" y2="82" stroke="#40916C" stroke-width="2.5" stroke-linecap="round"></line><line x1="237" y1="99" x2="244" y2="85" stroke="#2D6A4F" stroke-width="2.5" stroke-linecap="round"></line></svg>
